<svg width="48" height="48" viewBox="0 0 48 48" fill="none" xmlns="http://www.w3.org/2000/svg" data-fg-damy2="1.46:5.90:/src/app/components/MapPin.tsx:32:7:856:700:e:svg" style="width: 48px; height: 48px;"><path d="M24 0C14.059 0 6 8.059 6 18C6 27 15 36 20.5 42C22 43.5 23 45 23.5 46.5C23.7 47.2 23.85 47.8 24 48C24.15 47.8 24.3 47.2 24.5 46.5C25 45 26 43.5 27.5 42C33 36 42 27 42 18C42 8.059 33.941 0 24 0Z" fill="#FF7F2A" data-fg-damy4="1.46:5.90:/src/app/components/MapPin.tsx:42:9:1181:252:e:path"/><circle cx="24" cy="18" r="13" fill="#FF8C42" data-fg-damy6="1.46:5.90:/src/app/components/MapPin.tsx:47:9:1490:53:e:circle"/><g transform="translate(13, 7) scale(0.9167)"><path d="M12 17C13.1 17 14.0417 16.6083 14.825 15.825C15.6083 15.0417 16 14.1 16 13H8C8 14.1 8.39167 15.0417 9.175 15.825C9.95833 16.6083 10.9 17 12 17ZM7 9H11C11 8.45 10.8042 7.97917 10.4125 7.5875C10.0208 7.19583 9.55 7 9 7C8.45 7 7.97917 7.19583 7.5875 7.5875C7.19583 7.97917 7 8.45 7 9ZM13 9H17C17 8.45 16.8042 7.97917 16.4125 7.5875C16.0208 7.19583 15.55 7 15 7C14.45 7 13.9792 7.19583 13.5875 7.5875C13.1958 7.97917 13 8.45 13 9ZM12 22C10.75 22 9.57917 21.7625 8.4875 21.2875C7.39583 20.8125 6.44583 20.1708 5.6375 19.3625C4.82917 18.5542 4.1875 17.6042 3.7125 16.5125C3.2375 15.4208 3 14.25 3 13V2H21V13C21 14.25 20.7625 15.4208 20.2875 16.5125C19.8125 17.6042 19.1708 18.5542 18.3625 19.3625C17.5542 20.1708 16.6042 20.8125 15.5125 21.2875C14.4208 21.7625 13.25 22 12 22ZM12 20C13.9333 20 15.5833 19.3167 16.95 17.95C18.3167 16.5833 19 14.9333 19 13V4H5V13C5 14.9333 5.68333 16.5833 7.05 17.95C8.41667 19.3167 10.0667 20 12 20Z" fill="white" id="Vector" data-fg-bgkb3="1.16:1.418:/src/imports/Art1.tsx:8:11:287:73:e:path"/></g></svg>