<svg width="48" height="48" viewBox="0 0 48 48" fill="none" xmlns="http://www.w3.org/2000/svg" data-fg-damy2="1.46:5.90:/src/app/components/MapPin.tsx:32:7:856:700:e:svg" style="width: 48px; height: 48px;"><path d="M24 0C14.059 0 6 8.059 6 18C6 27 15 36 20.5 42C22 43.5 23 45 23.5 46.5C23.7 47.2 23.85 47.8 24 48C24.15 47.8 24.3 47.2 24.5 46.5C25 45 26 43.5 27.5 42C33 36 42 27 42 18C42 8.059 33.941 0 24 0Z" fill="#8B5CF6" data-fg-damy4="1.46:5.90:/src/app/components/MapPin.tsx:42:9:1181:252:e:path"/><circle cx="24" cy="18" r="13" fill="#A78BFA" data-fg-damy6="1.46:5.90:/src/app/components/MapPin.tsx:47:9:1490:53:e:circle"/><g transform="translate(13, 7) scale(0.9167)"><path d="M4 4L6 8H9L7 4H9L11 8H14L12 4H14L16 8H19L17 4H20C20.55 4 21.0208 4.19583 21.4125 4.5875C21.8042 4.97917 22 5.45 22 6V18C22 18.55 21.8042 19.0208 21.4125 19.4125C21.0208 19.8042 20.55 20 20 20H4C3.45 20 2.97917 19.8042 2.5875 19.4125C2.19583 19.0208 2 18.55 2 18V6C2 5.45 2.19583 4.97917 2.5875 4.5875C2.97917 4.19583 3.45 4 4 4ZM4 10V18H20V10H4Z" fill="white" id="Vector" data-fg-ckp43="1.71:1.421:/src/imports/Film1.tsx:8:11:290:73:e:path"/></g></svg>