<svg width="48" height="48" viewBox="0 0 48 48" fill="none" xmlns="http://www.w3.org/2000/svg" data-fg-damy2="1.46:5.90:/src/app/components/MapPin.tsx:32:7:856:700:e:svg" style="width: 48px; height: 48px;"><path d="M24 0C14.059 0 6 8.059 6 18C6 27 15 36 20.5 42C22 43.5 23 45 23.5 46.5C23.7 47.2 23.85 47.8 24 48C24.15 47.8 24.3 47.2 24.5 46.5C25 45 26 43.5 27.5 42C33 36 42 27 42 18C42 8.059 33.941 0 24 0Z" fill="#EF4444" data-fg-damy4="1.46:5.90:/src/app/components/MapPin.tsx:42:9:1181:252:e:path"/><circle cx="24" cy="18" r="13" fill="#F87171" data-fg-damy6="1.46:5.90:/src/app/components/MapPin.tsx:47:9:1490:53:e:circle"/><g transform="translate(13, 7) scale(0.9167)"><path d="M6 21C4.9 21 3.95833 20.6083 3.175 19.825C2.39167 19.0417 2 18.1 2 17C2 15.9 2.39167 14.9583 3.175 14.175C3.95833 13.3917 4.9 13 6 13C6.38333 13 6.7375 13.0458 7.0625 13.1375C7.3875 13.2292 7.7 13.3667 8 13.55V5L20 3V15C20 16.1 19.6083 17.0417 18.825 17.825C18.0417 18.6083 17.1 19 16 19C14.9 19 13.9583 18.6083 13.175 17.825C12.3917 17.0417 12 16.1 12 15C12 13.9 12.3917 12.9583 13.175 12.175C13.9583 11.3917 14.9 11 16 11C16.3833 11 16.7375 11.0458 17.0625 11.1375C17.3875 11.2292 17.7 11.3667 18 11.55V7.425L10 9V17C10 18.1 9.60833 19.0417 8.825 19.825C8.04167 20.6083 7.1 21 6 21Z" fill="white" id="Vector" data-fg-c3xd3="1.89:1.424:/src/imports/Music1.tsx:8:11:293:73:e:path"/></g></svg>