<svg width="48" height="48" viewBox="0 0 48 48" fill="none" xmlns="http://www.w3.org/2000/svg" data-fg-damy2="1.46:5.90:/src/app/components/MapPin.tsx:32:7:856:700:e:svg" style="width: 48px; height: 48px;"><path d="M24 0C14.059 0 6 8.059 6 18C6 27 15 36 20.5 42C22 43.5 23 45 23.5 46.5C23.7 47.2 23.85 47.8 24 48C24.15 47.8 24.3 47.2 24.5 46.5C25 45 26 43.5 27.5 42C33 36 42 27 42 18C42 8.059 33.941 0 24 0Z" fill="#10B981" data-fg-damy4="1.46:5.90:/src/app/components/MapPin.tsx:42:9:1181:252:e:path"/><circle cx="24" cy="18" r="13" fill="#34D399" data-fg-damy6="1.46:5.90:/src/app/components/MapPin.tsx:47:9:1490:53:e:circle"/><g transform="translate(13, 7) scale(0.9167)"><path d="M3 7V3L7 5L3 7ZM18 7V3L22 5L18 7ZM11 6V2L15 4L11 6ZM11 22C9.73333 21.9667 8.55417 21.8625 7.4625 21.6875C6.37083 21.5125 5.42083 21.2917 4.6125 21.025C3.80417 20.7583 3.16667 20.45 2.7 20.1C2.23333 19.75 2 19.3833 2 19V10C2 9.58333 2.2625 9.19583 2.7875 8.8375C3.3125 8.47917 4.025 8.1625 4.925 7.8875C5.825 7.6125 6.88333 7.39583 8.1 7.2375C9.31667 7.07917 10.6167 7 12 7C13.3833 7 14.6833 7.07917 15.9 7.2375C17.1167 7.39583 18.175 7.6125 19.075 7.8875C19.975 8.1625 20.6875 8.47917 21.2125 8.8375C21.7375 9.19583 22 9.58333 22 10V19C22 19.3833 21.7667 19.75 21.3 20.1C20.8333 20.45 20.1958 20.7583 19.3875 21.025C18.5792 21.2917 17.6292 21.5125 16.5375 21.6875C15.4458 21.8625 14.2667 21.9667 13 22V18H11V22ZM12 11C13.6167 11 15.0125 10.9042 16.1875 10.7125C17.3625 10.5208 18.3 10.3 19 10.05C19 9.96667 18.3667 9.77083 17.1 9.4625C15.8333 9.15417 14.1333 9 12 9C9.86667 9 8.16667 9.15417 6.9 9.4625C5.63333 9.77083 5 9.96667 5 10.05C5.7 10.3 6.6375 10.5208 7.8125 10.7125C8.9875 10.9042 10.3833 11 12 11ZM9 19.85V16H15V19.85C16.3333 19.7167 17.425 19.5208 18.275 19.2625C19.125 19.0042 19.7 18.775 20 18.575V11.8C19.0833 12.1667 17.9333 12.4583 16.55 12.675C15.1667 12.8917 13.65 13 12 13C10.35 13 8.83333 12.8917 7.45 12.675C6.06667 12.4583 4.91667 12.1667 4 11.8V18.575C4.3 18.775 4.875 19.0042 5.725 19.2625C6.575 19.5208 7.66667 19.7167 9 19.85Z" fill="white" id="Vector" data-fg-dggk3="1.122:1.424:/src/imports/Sport1.tsx:8:11:293:73:e:path"/></g></svg>